# xmcd CD database file
#
# Track frame offsets:
#	150
#	11712
#	26942
#	44602
#	59705
#
# Disc length: 932 seconds
#
# Revision: 0
# Processed by: cddbd v1.5PL3 Copyright (c) Steve Scherf et al.
# Submitted via: CDex 1.51
#
DISCID=4703a205
DTITLE=Jivin' Jake Jern - Songs from 51'st state
DYEAR=1998
DGENRE=Country
TTITLE0=The 51'st state
TTITLE1=Anyone but me
TTITLE2=Every song on the radio
TTITLE3=I just can't stand myself tonight
TTITLE4=Happy trails
EXTD=YEAR: 1998
EXTT0=
EXTT1=
EXTT2=
EXTT3=
EXTT4=
PLAYORDER=
